# xmcd
#
# Track frame offsets: 
#        150
#        11757
#        27347
#        42057
#        56672
#        69577
#        83552
#        97240
#        111265
#        123365
#        134947
#        146802
#        158332
#        172957
#        185895
#        197697
#        209425
#        219640
#        233237
#        246952
#
# Disc length: 3440 seconds
#
# Revision: 2
# Processed by: cddbd v1.5.2PL0 Copyright (c) Steve Scherf et al.
# Submitted via: ExactAudioCopyFreeDBPlugin 1.0
#
DISCID=2d0d6e14
DTITLE=Charles Brown - The Complete Aladdin Recordings of Charles Brow
DTITLE=n [Mosaic box set]
DYEAR=1994
DGENRE=Rhythm and Blues
TTITLE0=Blazer's Boogie
TTITLE1=Baby, Don't You Cry
TTITLE2=Drifting Blues (alternate take)
TTITLE3=Drifting Blues
TTITLE4=Groovy
TTITLE5=You Are My First Love
TTITLE6=Race Track Blues
TTITLE7=Until the Real Thing Comes Along
TTITLE8=Rocks in My Bed
TTITLE9=Honey, Keep Your Mind on Me
TTITLE10=Foolish
TTITLE11=My Last Affair
TTITLE12=Homesick Blues
TTITLE13=I Wonder When My Baby's Coming Home
TTITLE14=Dedicated to You
TTITLE15=What a Life
TTITLE16=How High the Moon
TTITLE17=Ooh! Ooh! Sugar
TTITLE18=Get Yourself Another Fool
TTITLE19=Baby, Do You Know the Game?
EXTD=
EXTT0=
EXTT1=
EXTT2=
EXTT3=
EXTT4=
EXTT5=
EXTT6=
EXTT7=
EXTT8=
EXTT9=
EXTT10=
EXTT11=
EXTT12=
EXTT13=
EXTT14=
EXTT15=
EXTT16=
EXTT17=
EXTT18=
EXTT19=
PLAYORDER=
